<svg width="222" height="222" viewBox="0 0 58 58" fill="none" xmlns="http://www.w3.org/2000/svg">
<path d="M8.7264 36.9197C2.33859 30.8341 12.2626 11.5273 26.3407 9.07972C42.1368 6.33349 53.2222 18.287 50.4801 32.0773C47.4562 47.285 27.5887 54.8899 21.9214 49.4906C18.5902 46.317 24.1455 42.4296 20.0493 38.5271C15.953 34.6246 11.7088 39.7611 8.7264 36.9197Z" fill="#6FC66C"/>
<path d="M33.3568 31.8727C32.9888 32.3723 32.5941 32.851 32.1743 33.3068C32.1258 33.3584 32.0748 33.4101 32.0238 33.4568C31.7489 33.7407 31.4552 34.0053 31.1449 34.2489C30.8595 34.4736 30.5576 34.6759 30.2417 34.854C29.3343 35.3845 28.3177 35.6944 27.272 35.7593C26.2263 35.8241 25.18 35.6422 24.2154 35.2278C23.1711 34.7876 22.2463 34.0999 21.5188 33.2224C20.7912 32.345 20.2822 31.3034 20.0345 30.1853L20.0563 30.2099C21.1007 31.3197 22.4856 32.038 23.985 32.2475C25.4843 32.457 27.0095 32.1454 28.3114 31.3635L28.5057 31.2381C28.5813 31.1897 28.6543 31.1372 28.7242 31.0806C29.3676 30.5764 29.8386 29.9418 30.4383 29.1423L30.4553 29.1177L30.5476 28.9947C30.6132 28.9062 30.6787 28.8201 30.7394 28.734C31.6111 29.7794 32.4876 30.8273 33.3568 31.8727Z" fill="#BEE2BD"/>
<path d="M28.312 31.3629C27.01 32.1448 25.4849 32.4564 23.9855 32.2469C22.4862 32.0373 21.1013 31.3191 20.0569 30.2093L20.035 30.1847C20.035 30.1404 20.0156 30.0937 20.0083 30.0469C19.9598 29.7868 19.9265 29.5239 19.9088 29.2598C19.8192 27.6365 20.2743 26.0302 21.2 24.702C22.1257 23.3739 23.4676 22.402 25.0075 21.9444C26.0052 21.6507 27.0565 21.5951 28.0789 21.782C26.6438 22.3361 25.4413 23.3747 24.6743 24.7226C23.9073 26.0706 23.6228 27.6453 23.8688 29.1811C23.8688 29.2229 23.8809 29.2672 23.8882 29.309C23.9993 29.8014 24.2255 30.2596 24.5479 30.6449C24.8703 31.0301 25.2794 31.3312 25.7408 31.5228C26.1517 31.7021 26.5986 31.7811 27.0452 31.7533C27.4918 31.7256 27.9258 31.5918 28.312 31.3629Z" fill="#E7F5E6"/>
<path d="M42.6814 34.0938C42.1055 34.6377 41.42 35.0484 40.6722 35.2977C39.9243 35.547 39.132 35.6289 38.3499 35.5377C37.0242 35.3582 35.7689 34.6301 34.6157 33.383C34.5088 33.2698 34.4093 33.1567 34.3097 33.0386C33.982 32.6524 33.659 32.2662 33.3385 31.8776C32.4693 30.8322 31.5928 29.7843 30.7187 28.7389C30.7138 28.7295 30.7072 28.7212 30.6993 28.7143C30.6805 28.6862 30.6602 28.6591 30.6386 28.6331C30.2453 28.1411 29.9369 27.75 29.4926 27.2507C29.1027 26.7681 28.6426 26.3484 28.1281 26.0061C27.744 25.7937 27.3128 25.6845 26.8753 25.6887C26.6141 25.6878 26.3542 25.7242 26.1032 25.797C25.8108 25.8843 25.5333 26.0162 25.2801 26.1881C24.7946 26.5078 24.4053 26.9567 24.1548 27.4855C23.9043 28.0144 23.8022 28.6029 23.8597 29.1866C23.7082 28.2434 23.7562 27.2783 24.0005 26.3553C24.2725 25.3194 24.7845 24.3642 25.4939 23.5689C26.2033 22.7736 27.0897 22.1613 28.0795 21.7826C28.7781 21.9103 29.4509 22.1547 30.0705 22.5058C30.464 22.7298 30.8341 22.9935 31.1752 23.2929C31.6258 23.6853 32.0485 24.1094 32.4402 24.5622C32.7364 24.8967 32.9841 25.1919 33.2196 25.4797C33.8096 24.7122 34.4117 23.9275 34.9993 23.1502C35.1352 22.9707 35.2712 22.7911 35.4023 22.6115C35.722 22.1965 36.1899 21.9255 36.7051 21.8571C37.2203 21.7886 37.7414 21.9282 38.1559 22.2457C38.5704 22.5632 38.8449 23.0332 38.9203 23.554C38.9957 24.0749 38.8658 24.6049 38.5587 25.0295C38.0585 25.701 37.5511 26.3676 37.0436 27.0293L36.0919 28.2445C35.9947 28.3675 35.9001 28.4904 35.8029 28.6183L36.1331 29.0168C36.3759 29.312 36.6187 29.6072 36.8615 29.9024L37.2986 30.4214C37.8789 31.1052 38.4252 31.4988 38.867 31.5603C39.0736 31.5739 39.2807 31.5438 39.4751 31.4718C39.6695 31.3998 39.8469 31.2875 39.9961 31.1421C40.1844 30.9484 40.4096 30.7956 40.6581 30.6928C40.9065 30.5901 41.173 30.5396 41.4413 30.5445C41.7096 30.5494 41.9741 30.6095 42.2188 30.7212C42.4635 30.8329 42.6831 30.9939 42.8645 31.1943C43.0458 31.3947 43.185 31.6304 43.2736 31.887C43.3622 32.1436 43.3984 32.4158 43.3799 32.687C43.3614 32.9583 43.2886 33.2228 43.1661 33.4647C43.0435 33.7065 42.8736 33.9206 42.6668 34.0938H42.6814Z" fill="white"/>
</svg>
